<?xml version="1.0" standalone="no"?>
<!DOCTYPE svg PUBLIC "-//W3C//DTD SVG 20010904//EN"
 "http://www.w3.org/TR/2001/REC-SVG-20010904/DTD/svg10.dtd">
<svg version="1.0" xmlns="http://www.w3.org/2000/svg"
 width="96.000000pt" height="96.000000pt" viewBox="0 0 96.000000 96.000000"
 preserveAspectRatio="xMidYMid meet">
<metadata>
Created by potrace 1.16, written by Peter Selinger 2001-2019
</metadata>
<g transform="translate(0.000000,96.000000) scale(0.100000,-0.100000)"
fill="#000000" stroke="none">
<path fill="" d="M240 781 c0 -28 0 -28 79 -34 43 -3 89 -10 102 -17 30 -15 69 -51 69
-62 0 -4 -56 -8 -125 -8 l-125 0 0 -30 0 -30 130 0 c142 0 149 -3 109 -54 -32
-41 -75 -58 -161 -63 l-78 -6 0 -41 c1 -41 2 -42 150 -164 l149 -122 56 0 57
0 -162 135 -162 135 47 0 c25 0 60 7 78 16 64 32 117 98 117 144 0 18 6 20 75
20 l75 0 0 30 0 30 -75 0 c-41 0 -75 4 -75 9 0 4 -11 25 -25 45 l-24 36 99 0
100 0 0 30 0 30 -240 0 -240 0 0 -29z"/>
</g>
</svg>
